<svg version="1.1" id="Layer_1" xmlns="http://www.w3.org/2000/svg" xmlns:xlink="http://www.w3.org/1999/xlink" x="0px" y="0px"
	 width="100%" viewBox="0 0 512 512" enable-background="new 0 0 512 512" xml:space="preserve">
<path fill="#FFFFFF" opacity="1.000000" stroke="none" 
	d="
M246.000000,513.000000 
	C164.019882,513.000000 82.539764,513.000000 1.029824,513.000000 
	C1.029824,342.394867 1.029824,171.789703 1.029824,1.092279 
	C171.563477,1.092279 342.127014,1.092279 512.845276,1.092279 
	C512.845276,171.666565 512.845276,342.333252 512.845276,513.000000 
	C424.123016,513.000000 335.311493,513.000000 246.000000,513.000000 
M100.502724,266.928009 
	C100.488350,272.393188 100.434319,277.858582 100.467178,283.323486 
	C100.558693,298.543427 100.686279,313.763123 100.495789,329.875916 
	C100.495789,342.810486 100.495789,355.745087 100.495789,368.631714 
	C123.120323,368.631714 145.289719,368.631714 167.678757,368.631714 
	C167.678757,362.622101 167.707275,356.983337 167.673355,351.345001 
	C167.576370,335.225189 167.454025,319.105560 167.635498,302.094147 
	C167.635498,279.855896 167.635498,257.617676 167.635498,235.146881 
	C179.627762,235.146881 191.177551,235.146881 203.192535,235.146881 
	C203.192535,237.102448 203.186996,238.888611 203.193375,240.674744 
	C203.267548,261.453400 203.343506,282.232086 203.215271,303.926300 
	C203.215271,325.508820 203.215271,347.091370 203.215271,368.694489 
	C227.616379,368.694489 251.498123,368.694489 275.432159,368.694489 
	C276.382141,364.886536 277.211121,361.342407 278.151611,357.828094 
	C287.724915,322.055054 297.753571,286.427429 313.926361,252.915131 
	C318.997345,242.407364 324.664429,232.189362 334.039093,224.761505 
	C337.951538,221.661545 342.563141,219.633530 347.460541,222.243790 
	C351.938232,224.630356 352.448517,229.381119 351.756958,233.657990 
	C349.960297,244.769165 347.603638,255.789780 345.095367,267.450714 
	C335.800659,297.865326 323.440308,327.080261 310.424500,356.038483 
	C308.546753,360.216248 306.656555,364.388397 304.722778,368.672394 
	C336.701752,368.672394 368.120636,368.672394 399.591125,368.672394 
	C400.440948,362.602570 401.334991,356.859528 402.036560,351.093048 
	C404.790344,328.458771 407.635345,305.834076 410.159668,283.173828 
	C413.151672,256.315460 415.160248,229.363205 411.663574,202.430908 
	C410.459229,193.154556 407.264374,184.136642 404.994324,174.271255 
	C399.406403,160.916504 391.045685,150.177170 376.164459,146.972076 
	C360.098236,143.511780 344.804108,146.291962 329.981018,154.905396 
	C325.283234,158.314529 320.254944,161.352783 315.943298,165.195160 
	C293.930939,184.811569 280.355896,209.902283 269.372711,237.471817 
	C268.948364,237.227386 268.523987,236.982971 268.335815,235.860672 
	C268.245422,213.574173 268.154999,191.287674 268.144989,168.369263 
	C267.765869,168.282608 267.386780,168.195953 266.087494,167.912796 
	C253.726685,167.980850 241.365891,168.048904 228.089600,167.897919 
	C185.692245,167.897919 143.294907,167.897919 100.442062,167.897919 
	C100.442062,169.967575 100.442291,171.597031 100.442032,173.226471 
	C100.437286,202.518158 100.426613,231.809845 100.443192,261.101532 
	C100.444122,262.747681 100.669418,264.393738 100.502724,266.928009 
z"/>
<path fill="#060606" opacity="1.000000" stroke="none" 
	d="
M345.470459,266.846527 
	C347.603638,255.789780 349.960297,244.769165 351.756958,233.657990 
	C352.448517,229.381119 351.938232,224.630356 347.460541,222.243790 
	C342.563141,219.633530 337.951538,221.661545 334.039093,224.761505 
	C324.664429,232.189362 318.997345,242.407364 313.926361,252.915131 
	C297.753571,286.427429 287.724915,322.055054 278.151611,357.828094 
	C277.211121,361.342407 276.382141,364.886536 275.432159,368.694489 
	C251.498123,368.694489 227.616379,368.694489 203.215271,368.694489 
	C203.215271,347.091370 203.215271,325.508820 203.666260,303.459229 
	C205.938995,302.218079 207.994904,301.762573 209.547104,300.621735 
	C230.247620,285.406952 250.085022,269.287109 267.533478,250.216293 
	C283.581970,232.675659 298.372864,214.306534 310.610352,193.934219 
	C317.414795,182.606506 323.988464,171.137878 330.480225,159.627884 
	C331.177460,158.391739 330.630402,156.453812 330.660522,154.841431 
	C344.804108,146.291962 360.098236,143.511780 376.164459,146.972076 
	C391.045685,150.177170 399.406403,160.916504 404.596863,174.644226 
	C403.155731,175.863480 401.684814,176.502991 401.154816,177.597931 
	C399.949158,180.088776 399.506500,182.961334 398.224854,185.400940 
	C390.519958,200.067398 382.712250,214.680588 374.831879,229.253693 
	C372.567719,233.440765 370.115143,237.547913 367.457458,241.495483 
	C362.560455,248.769257 357.645142,256.050079 352.295715,262.987366 
	C350.825317,264.894257 347.788513,265.593262 345.470459,266.846527 
z"/>
<path fill="#090909" opacity="1.000000" stroke="none" 
	d="
M330.320770,154.873413 
	C330.630402,156.453812 331.177460,158.391739 330.480225,159.627884 
	C323.988464,171.137878 317.414795,182.606506 310.610352,193.934219 
	C298.372864,214.306534 283.581970,232.675659 267.533478,250.216293 
	C250.085022,269.287109 230.247620,285.406952 209.547104,300.621735 
	C207.994904,301.762573 205.938995,302.218079 203.768127,303.001465 
	C203.343506,282.232086 203.267548,261.453400 203.193375,240.674744 
	C203.186996,238.888611 203.192535,237.102448 203.192535,235.146881 
	C191.177551,235.146881 179.627762,235.146881 167.635498,235.146881 
	C167.635498,257.617676 167.635498,279.855896 167.147003,302.559631 
	C159.668198,306.335236 152.754852,309.821838 145.668411,312.911469 
	C136.485352,316.915161 127.257004,320.852600 117.867523,324.330963 
	C112.359634,326.371338 106.500656,327.463959 100.799614,328.982941 
	C100.686279,313.763123 100.558693,298.543427 100.467178,283.323486 
	C100.434319,277.858582 100.488350,272.393188 101.013840,266.471069 
	C110.605934,262.548798 120.049492,259.800476 128.676468,255.437500 
	C139.558960,249.933792 150.144211,243.647064 160.180145,236.716934 
	C171.326263,229.020203 182.407654,220.960220 192.241608,211.703278 
	C203.684036,200.932266 213.853821,188.789932 224.311661,177.008179 
	C226.472504,174.573792 227.470917,171.107605 229.005081,168.116959 
	C241.365891,168.048904 253.726685,167.980850 266.667664,168.218903 
	C267.464111,168.779724 267.736359,168.938431 268.064575,169.001175 
	C268.154999,191.287674 268.245422,213.574173 268.162781,236.684494 
	C267.989746,238.697388 267.989746,239.886459 267.989746,241.075531 
	C268.319214,241.136612 268.648682,241.197693 268.978180,241.258789 
	C269.321320,239.846222 269.664490,238.433655 270.007629,237.021088 
	C280.355896,209.902283 293.930939,184.811569 315.943298,165.195160 
	C320.254944,161.352783 325.283234,158.314529 330.320770,154.873413 
z"/>
<path fill="#020202" opacity="1.000000" stroke="none" 
	d="
M345.282898,267.148621 
	C347.788513,265.593262 350.825317,264.894257 352.295715,262.987366 
	C357.645142,256.050079 362.560455,248.769257 367.457458,241.495483 
	C370.115143,237.547913 372.567719,233.440765 374.831879,229.253693 
	C382.712250,214.680588 390.519958,200.067398 398.224854,185.400940 
	C399.506500,182.961334 399.949158,180.088776 401.154816,177.597931 
	C401.684814,176.502991 403.155731,175.863480 404.589111,175.008942 
	C407.264374,184.136642 410.459229,193.154556 411.663574,202.430908 
	C415.160248,229.363205 413.151672,256.315460 410.159668,283.173828 
	C407.635345,305.834076 404.790344,328.458771 402.036560,351.093048 
	C401.334991,356.859528 400.440948,362.602570 399.591125,368.672394 
	C368.120636,368.672394 336.701752,368.672394 304.722778,368.672394 
	C306.656555,364.388397 308.546753,360.216248 310.424500,356.038483 
	C323.440308,327.080261 335.800659,297.865326 345.282898,267.148621 
z"/>
<path fill="#111111" opacity="1.000000" stroke="none" 
	d="
M228.547333,168.007446 
	C227.470917,171.107605 226.472504,174.573792 224.311661,177.008179 
	C213.853821,188.789932 203.684036,200.932266 192.241608,211.703278 
	C182.407654,220.960220 171.326263,229.020203 160.180145,236.716934 
	C150.144211,243.647064 139.558960,249.933792 128.676468,255.437500 
	C120.049492,259.800476 110.605934,262.548798 101.157623,266.026978 
	C100.669418,264.393738 100.444122,262.747681 100.443192,261.101532 
	C100.426613,231.809845 100.437286,202.518158 100.442032,173.226471 
	C100.442291,171.597031 100.442062,169.967575 100.442062,167.897919 
	C143.294907,167.897919 185.692245,167.897919 228.547333,168.007446 
z"/>
<path fill="#080808" opacity="1.000000" stroke="none" 
	d="
M100.647705,329.429443 
	C106.500656,327.463959 112.359634,326.371338 117.867523,324.330963 
	C127.257004,320.852600 136.485352,316.915161 145.668411,312.911469 
	C152.754852,309.821838 159.668198,306.335236 167.000092,303.005493 
	C167.454025,319.105560 167.576370,335.225189 167.673355,351.345001 
	C167.707275,356.983337 167.678757,362.622101 167.678757,368.631714 
	C145.289719,368.631714 123.120323,368.631714 100.495789,368.631714 
	C100.495789,355.745087 100.495789,342.810486 100.647705,329.429443 
z"/>
<path fill="#111111" opacity="1.000000" stroke="none" 
	d="
M269.690186,237.246460 
	C269.664490,238.433655 269.321320,239.846222 268.978180,241.258789 
	C268.648682,241.197693 268.319214,241.136612 267.989746,241.075531 
	C267.989746,239.886459 267.989746,238.697388 268.044678,237.123428 
	C268.523987,236.982971 268.948364,237.227386 269.690186,237.246460 
z"/>
<path fill="#111111" opacity="1.000000" stroke="none" 
	d="
M268.104797,168.685211 
	C267.736359,168.938431 267.464111,168.779724 267.127747,168.317169 
	C267.386780,168.195953 267.765869,168.282608 268.104797,168.685211 
z"/>
</svg>